<?xml version="1.0" encoding="utf-8"?>
<!-- Generator: Adobe Illustrator 23.0.6, SVG Export Plug-In . SVG Version: 6.00 Build 0)  -->
<svg version="1.1" id="レイヤー_1" xmlns="http://www.w3.org/2000/svg" xmlns:xlink="http://www.w3.org/1999/xlink" x="0px"
	 y="0px" viewBox="0 0 846.2 958.7" style="enable-background:new 0 0 846.2 958.7;" xml:space="preserve">
<style type="text/css">
	.st0{fill:#FFFFFF;}
</style>
<g>
	<path class="st0" d="M0,0h846.2l0,0l-76.5,863.5l0,0l-343.9,95.2L77.3,863.8l0,0L0,0 M153.1,174.2L181,490l6.4,6.1l358.5,1
		l-11.6,130.6l-4.1,5.1l-105.6,29.6l-13,0.3L307.8,634l-6-6.2l-6.1-73l-7-6.4l-99,0.1l-3.2,3.8l13.8,155.4l9.8,11.3L412,775
		l15.5-0.4L632,717.7l4.3-5l28.4-320l-5.3-5.5L286,387.6l-5.9-5.3l-8.2-93.8l5.9-6.4l391.4,0.8l6-5.2l9-103.5L153.1,174.2
		L153.1,174.2L153.1,174.2z"/>
</g>
</svg>
