<?xml version="1.0" encoding="utf-8"?>
<!-- Generator: Adobe Illustrator 23.0.6, SVG Export Plug-In . SVG Version: 6.00 Build 0)  -->
<svg version="1.1" id="レイヤー_1" xmlns="http://www.w3.org/2000/svg" xmlns:xlink="http://www.w3.org/1999/xlink" x="0px"
	 y="0px" viewBox="0 0 845.3 957.7" style="enable-background:new 0 0 845.3 957.7;" xml:space="preserve">
<style type="text/css">
	.st0{fill:#FFFFFF;}
	.st1{fill:none;}
</style>
<g>
	<path class="st0" d="M0,0h845.3l-76.2,858.7l-4.1,5.4l-339.1,93.6l-14.4-1.2l-331.4-92l-4.4-5.7L0,0L0,0z M458.5,767.8L668,709.5
		l3.6-3.7l28.7-319.1l-6.4-7.7L573.4,379l-5.7-5.6l0-93.5l5.7-5.5l132.5,0.2l4.9-4.9l8.6-96.5l-6.9-8.3l-246,0l-8.3,8.2l0,304
		l11.6,11.4l106,0l5.4,4.2l-11.8,127.6l-4.2,4.6l-101,27.9l-6,7.9L458.5,767.8L458.5,767.8z M357.8,766.8l0.1-595.5l-6.5-6.4
		l-97.5,0l-5.7,5.9l0,454.4l-108.7-27.8l-4.1,2.8l9.5,104.4l5.1,5.6L357.8,766.8L357.8,766.8z"/>
	<path class="st1" d="M458.6,767.5c-0.1-2.6-0.3-4.4-0.3-6.2c0-33.7,0.1-67.3-0.1-101c0-4.6,1.4-6.6,6-7.9
		c33.7-9.1,67.3-18.5,101-27.9c2.3-0.6,3.9-1.5,4.2-4.6c1.1-13.9,2.5-27.7,3.8-41.5c1.6-17,3.3-33.9,4.8-50.9
		c1.1-11.7,2-23.4,3.1-35.1c0.4-4.5-2.4-4.2-5.4-4.2c-35.3,0-70.7,0-106,0c-12.9,0-11.6,1.4-11.6-11.4c0-101.3,0-202.6,0-304
		c0-8.2,0-8.2,8.3-8.2c82,0,164,0,246,0c7.8,0,8,0.6,6.9,8.3c-1.2,8.8-1.8,17.8-2.6,26.7c-1.7,18-3.3,35.9-4.9,53.9
		c-0.5,5.3-1,10.6-1.1,15.9c0,3.6-1.2,5-4.9,4.9c-11.5-0.2-23-0.1-34.5-0.1c-32.7,0-65.3,0.1-98-0.1c-4.3,0-5.8,1-5.7,5.5
		c0.2,31.2,0.2,62.3,0,93.5c0,4.5,1.3,5.6,5.7,5.6c40.2-0.2,80.3-0.1,120.5-0.1c7.4,0,7.4,0.4,6.4,7.7c-1.1,8.4-1.7,16.8-2.4,25.2
		c-1.7,18.3-3.3,36.6-4.9,54.9c-1.1,12.7-2,25.4-3.2,38.1c-1.5,16.8-3.2,33.6-4.8,50.4c-0.8,8.9-1.4,17.8-2.2,26.8
		c-1.6,17.5-3.2,34.9-4.8,52.4c-1.1,11.9-2.1,23.8-3.1,35.6c-1,11.9-1.9,23.8-3.2,35.6c-0.1,1.4-2.1,3.3-3.6,3.7
		c-27.5,7.8-55.2,15.4-82.7,23.1c-31.3,8.7-62.5,17.4-93.8,26.1C480.9,761.4,470.2,764.3,458.6,767.5z"/>
	<path class="st1" d="M357.9,766.6c-2.9-0.5-5-0.6-7-1.2c-43.9-12.1-87.8-24.3-131.8-36.4c-23-6.4-46-12.7-69-19
		c-2.9-0.8-4.8-1.9-5.1-5.6c-0.6-9.9-1.8-19.8-2.7-29.7c-1.6-17.7-3.2-35.3-4.8-53c-0.7-7.3-1.3-14.5-1.9-21.8
		c-0.3-3.4,1.5-3.5,4.1-2.8c11.7,3.1,23.4,6,35.1,9.1c22.8,5.9,45.5,11.8,68.3,17.7c1.5,0.4,3.1,0.6,5.3,1c0-2.7,0-4.8,0-7
		c0-147.5,0-295,0-442.5c0-1.7,0.1-3.3,0-5c-0.4-4.3,1.3-6,5.7-5.9c11,0.2,22,0.1,33,0.1c21.5,0,43,0.1,64.5-0.1
		c5-0.1,6.5,1.2,6.5,6.4c-0.1,196.3-0.1,392.6-0.1,588.9C357.9,761.8,357.9,763.6,357.9,766.6z"/>
</g>
</svg>
