<?xml version="1.0" encoding="utf-8"?>
<!-- Generator: Adobe Illustrator 23.0.6, SVG Export Plug-In . SVG Version: 6.00 Build 0)  -->
<svg version="1.1" id="レイヤー_1" xmlns="http://www.w3.org/2000/svg" xmlns:xlink="http://www.w3.org/1999/xlink" x="0px"
	 y="0px" viewBox="0 0 845.8 958.7" style="enable-background:new 0 0 845.8 958.7;" xml:space="preserve">
<style type="text/css">
	.st0{fill:none;}
	.st1{fill:#FFFFFF;}
</style>
<g>
	<path class="st0" d="M675.6,205.1c-64.4-63.3-153.3-102.4-251.4-102.4c-98.2,0-187,39.1-251.4,102.5
		C108.1,268.5,68.2,355.8,68.2,452.2c0,96.4,39.9,183.6,104.4,246.9c64.4,63.4,153.3,102.5,251.4,102.5c98.2,0,187-39.1,251.4-102.5
		C740.1,635.8,780,548.6,779.8,452C779.8,355.6,740,268.5,675.6,205.1z M114.5,452.2c0-43.9,9.5-85.5,26.6-123.1h2.1l144,395.8
		C184.9,675.3,114.5,571.8,114.5,452.2z M424.1,756.2c-32.4,0-63.5-5-92.8-14l25.5-66.7L431,480.7L525,739.6
		C493.4,750.4,459.5,756.2,424.1,756.2z M463,329.1h49.5v-40.2H322.9v40.2h52.8l35,96l-74.2,194.8L230.7,329.1h45.7v-40.2H163.1
		c55-84.7,151.3-140.8,261.1-140.8c77.2,0,147.9,27.9,202.3,73.9c-49.2,8.2-53.1,83.1-26.4,119.8c27.8,38.4,33.4,100.5,23.8,138.7
		l-54,141.8L463,329.1z M575.1,717.6l15-39.4l67.3-176.9c0,0,46.6-108.2,54.1-157.6c0.1-1.2,0.3-2.2,0.4-3.4
		c14.1,34.6,21.8,72.4,21.8,111.8C733.7,566.3,669.8,665.5,575.1,717.6z"/>
	<path class="st1" d="M843.6,0.1L0,0l35.9,407.5l13.6,154.3l26.2,297.9l4.2,5.1l344.8,93.9l334.3-92.4l10.4-10.9l25.1-281l16-179
		L845.8,2.5L843.6,0.1z M172.7,205.3c64.4-63.4,153.3-102.5,251.4-102.5c98.2,0,187,39.1,251.4,102.4
		C740,268.5,779.8,355.6,779.8,452c0.1,96.5-39.7,183.8-104.3,247.1c-64.4,63.4-153.3,102.5-251.4,102.5
		c-98.2,0-187-39.1-251.4-102.5C108.1,635.8,68.2,548.6,68.2,452.2C68.2,355.8,108.1,268.5,172.7,205.3z"/>
	<path class="st1" d="M141.1,329.1c-17.1,37.6-26.6,79.2-26.6,123.1c0,119.6,70.4,223.1,172.7,272.7l-144-395.8H141.1z"/>
	<path class="st1" d="M600,341.9c-26.7-36.7-22.7-111.5,26.4-119.8c-54.3-46-125-73.9-202.3-73.9c-109.8,0-206.1,56.1-261.1,140.8
		h113.3v40.2h-45.6l105.8,290.7l74.2-194.7l-35-96h-52.8v-40.2h189.6v40.2H463l106.7,293.2l54-141.8
		C633.4,442.3,627.8,380.2,600,341.9z"/>
	<path class="st1" d="M711.9,340.2c-0.2,1.2-0.3,2.2-0.5,3.4c-7.5,49.3-54,157.6-54,157.6l-67.3,176.9l-15,39.4
		c94.7-52,158.6-151.3,158.6-265.5C733.7,412.6,725.9,374.8,711.9,340.2z"/>
	<path class="st1" d="M356.8,675.6l-25.5,66.7c29.3,9,60.5,13.9,92.8,13.9c35.4,0,69.3-5.8,100.9-16.6l-94-258.9L356.8,675.6z"/>
</g>
</svg>
