<?xml version="1.0" encoding="utf-8"?>
<!-- Generator: Adobe Illustrator 23.0.6, SVG Export Plug-In . SVG Version: 6.00 Build 0)  -->
<svg version="1.1" id="レイヤー_1" xmlns="http://www.w3.org/2000/svg" xmlns:xlink="http://www.w3.org/1999/xlink" x="0px"
	 y="0px" viewBox="0 0 845.8 958.7" style="enable-background:new 0 0 845.8 958.7;" xml:space="preserve">
<style type="text/css">
	.st0{fill:#FFFFFF;}
</style>
<g>
	<path class="st0" d="M0,0l843.6,0.1l2.2,2.3l-76.3,852.9l-10.4,10.9l-334.3,92.4L79.9,864.8l-4.2-5.1L0,0L0,0z M189.8,548.5
		l14.3,163.4l4.8,6.3l203,56.6l17.9,0.8l205.4-57.2l5.7-7.6l28.5-323.5h-239l242.6-101.9l6.8-10l8.6-101.8H156.5l9.6,109.3h258.5
		L181,384.8l-5,7.9l8.2,93.7l10.4,10.6l354.8,0l-11.3,129.9l-4.8,6.2l-100.9,27.8l-14.4,1.3l-106.6-29.2l-4.4-4.2l-7.5-80.3H189.8
		L189.8,548.5z"/>
</g>
</svg>
