<?xml version="1.0" encoding="utf-8"?>
<!-- Generator: Adobe Illustrator 23.0.4, SVG Export Plug-In . SVG Version: 6.00 Build 0)  -->
<svg version="1.1" id="家" xmlns="http://www.w3.org/2000/svg" xmlns:xlink="http://www.w3.org/1999/xlink" x="0px" y="0px"
	 viewBox="0 0 166 40" style="enable-background:new 0 0 166 40;" xml:space="preserve">
<style type="text/css">
	.st0{display:none;fill:#54719E;}
	.st1{enable-background:new    ;}
	.st2{fill:#FFFFFF;}
</style>
<rect class="st0" width="181.7" height="40"/>
<title>アートボード 26</title>
<g class="st1">
	<path class="st2" d="M49.8,17h9.5c0.3,0,0.5-0.2,0.5-0.5V8.1c0-0.3,0.2-0.5,0.5-0.5h2.7c0.3,0,0.5,0.2,0.5,0.5v23.1
		c0,0.3-0.2,0.5-0.5,0.5h-2.7c-0.3,0-0.5-0.2-0.5-0.5V20.9c0-0.3-0.2-0.5-0.5-0.5h-9.5c-0.3,0-0.5,0.2-0.5,0.5v10.3
		c0,0.3-0.2,0.5-0.5,0.5h-2.7c-0.3,0-0.5-0.2-0.5-0.5V8.1c0-0.3,0.2-0.5,0.5-0.5h2.7c0.3,0,0.5,0.2,0.5,0.5v8.5
		C49.3,16.8,49.5,17,49.8,17z"/>
	<path class="st2" d="M71.4,19.5c0-3.4,1.2-6.3,3.7-8.7c2.5-2.4,5.4-3.6,8.9-3.6c3.4,0,6.4,1.2,8.8,3.7c2.6,2.6,3.8,5.7,3.7,9.4
		c-0.1,3-1.3,5.8-3.4,8c-2.5,2.6-5.6,3.9-9.3,3.9c-3.1,0-5.9-1.1-8.4-3.2C72.7,26.5,71.4,23.4,71.4,19.5z M75,19.6
		c0,2.7,0.9,4.8,2.7,6.6c1.8,1.7,3.8,2.6,6.2,2.6c2.5,0,4.7-0.9,6.4-2.6c1.7-1.8,2.6-3.9,2.6-6.5c0-2.6-0.9-4.7-2.6-6.5
		c-1.7-1.7-3.8-2.6-6.3-2.6c-2.5,0-4.6,0.9-6.3,2.6C75.9,14.9,75,17.1,75,19.6z"/>
	<path class="st2" d="M103.9,31.1l4.7-23.9c0.1-0.4,0.7-0.5,0.9-0.1l7.3,16.4c0.2,0.4,0.7,0.4,0.8,0L125,7.1
		c0.2-0.4,0.8-0.3,0.9,0.1l4.2,23.9c0,0.3-0.2,0.5-0.5,0.5h-2.8c-0.2,0-0.4-0.2-0.5-0.4l-2-12.6c-0.1-0.4-0.7-0.5-0.9-0.1l-6.1,13.3
		c-0.2,0.4-0.7,0.4-0.8,0l-5.9-13.3c-0.2-0.4-0.8-0.3-0.9,0.1l-2.3,12.7c0,0.2-0.2,0.4-0.5,0.4h-2.8C104,31.7,103.8,31.4,103.9,31.1
		z"/>
	<path class="st2" d="M151.6,11h-8.7c-0.3,0-0.5,0.2-0.5,0.5v4.9c0,0.3,0.2,0.5,0.5,0.5h8.5c0.3,0,0.5,0.2,0.5,0.5v2.5
		c0,0.3-0.2,0.5-0.5,0.5h-8.5c-0.3,0-0.5,0.2-0.5,0.5v7.1c0,0.3,0.2,0.5,0.5,0.5h8.7c0.3,0,0.5,0.2,0.5,0.5v2.5
		c0,0.3-0.2,0.5-0.5,0.5h-12.4c-0.3,0-0.5-0.2-0.5-0.5V8.1c0-0.3,0.2-0.5,0.5-0.5h12.4c0.3,0,0.5,0.2,0.5,0.5v2.5
		C152.1,10.8,151.9,11,151.6,11z"/>
</g>
<g>
	<polygon class="st2" points="32.7,16.5 29,12.7 26.2,9.8 23.4,6.9 9.9,20.8 11.9,22.9 23.4,11 34.8,22.9 36.8,20.8 	"/>
	<polygon class="st2" points="14.1,22.3 14.1,31.7 21.2,31.7 21.2,25.4 25.6,25.4 25.6,31.7 32.7,31.7 32.7,22.3 23.4,12.7 	"/>
</g>
</svg>
