<svg id="レイヤー_1" data-name="レイヤー 1" xmlns="http://www.w3.org/2000/svg" viewBox="0 0 109.68 41.57"><defs><style>.cls-1{fill:#fff;}</style></defs><title>logo</title><path class="cls-1" d="M10.43,14.4,4.28,3.7H7.55l4.31,7.53L16.18,3.7h3.28L13.28,14.4v8.14H10.43Z" transform="translate(-4.28 -1.93)"/><path class="cls-1" d="M29.24,10.65H32V22.54H29.24V21.3a5.26,5.26,0,0,1-7.72-.2,6.59,6.59,0,0,1-1.6-4.54,6.4,6.4,0,0,1,1.6-4.45,5.14,5.14,0,0,1,4-1.79A5.06,5.06,0,0,1,29.24,12Zm-6.52,5.91a4.17,4.17,0,0,0,.92,2.79A3,3,0,0,0,26,20.43a3.13,3.13,0,0,0,2.46-1.05,4,4,0,0,0,.94-2.76,4,4,0,0,0-.94-2.75A3.1,3.1,0,0,0,26,12.8a3,3,0,0,0-2.37,1.08A4,4,0,0,0,22.72,16.56Z" transform="translate(-4.28 -1.93)"/><path class="cls-1" d="M43.75,12.68l-2.27,1.21c-.36-.73-.8-1.1-1.33-1.1a.91.91,0,0,0-.65.25.87.87,0,0,0-.26.64c0,.46.52.91,1.58,1.36a9.21,9.21,0,0,1,2.94,1.73,3,3,0,0,1,.76,2.14,3.75,3.75,0,0,1-1.27,2.88A4.55,4.55,0,0,1,36,20l2.34-1.09A5.48,5.48,0,0,0,39.13,20a1.68,1.68,0,0,0,1.19.46c.93,0,1.39-.42,1.39-1.27,0-.49-.35-.94-1.07-1.36l-.83-.41L39,17a5.21,5.21,0,0,1-1.69-1.17,2.93,2.93,0,0,1-.62-1.92,3.37,3.37,0,0,1,1.06-2.56,3.74,3.74,0,0,1,2.64-1A3.6,3.6,0,0,1,43.75,12.68Z" transform="translate(-4.28 -1.93)"/><path class="cls-1" d="M51.11,10.65v6.83c0,2,.78,2.95,2.33,2.95s2.33-1,2.33-2.95V10.65h2.75v6.89A7.61,7.61,0,0,1,58.16,20,4.14,4.14,0,0,1,57,21.68a5.77,5.77,0,0,1-7.07,0A4.33,4.33,0,0,1,48.7,20a7,7,0,0,1-.34-2.47V10.65Z" transform="translate(-4.28 -1.93)"/><path class="cls-1" d="M77.55,5.71a1.7,1.7,0,0,1,.53-1.24,1.72,1.72,0,0,1,1.26-.53,1.75,1.75,0,0,1,1.27.53,1.68,1.68,0,0,1,.52,1.25,1.79,1.79,0,1,1-3.58,0Zm3.17,4.94V22.54H78V10.65Z" transform="translate(-4.28 -1.93)"/><path class="cls-1" d="M85.07,10.65h2.75v1.07a5.28,5.28,0,0,1,1.34-1.09,3.12,3.12,0,0,1,1.41-.31,4.48,4.48,0,0,1,2.28.71l-1.26,2.52A2.58,2.58,0,0,0,90.06,13c-1.5,0-2.24,1.13-2.24,3.39v6.16H85.07Z" transform="translate(-4.28 -1.93)"/><path class="cls-1" d="M95.23,16.51a5.92,5.92,0,0,1,1.85-4.38,6.5,6.5,0,0,1,9,0,6.08,6.08,0,0,1,1.83,4.47,6,6,0,0,1-1.85,4.48,6.27,6.27,0,0,1-4.55,1.8A6,6,0,0,1,97,21.05,6.16,6.16,0,0,1,95.23,16.51Zm2.81,0A4,4,0,0,0,99,19.38a3.35,3.35,0,0,0,2.58,1.05,3.31,3.31,0,0,0,2.57-1,3.87,3.87,0,0,0,1-2.77,3.88,3.88,0,0,0-1-2.77,3.65,3.65,0,0,0-5.12,0A3.84,3.84,0,0,0,98,16.56Z" transform="translate(-4.28 -1.93)"/><path class="cls-1" d="M10.48,35,4.33,24.31H7.6l4.31,7.53,4.32-7.53H19.5L13.32,35v8.14H10.48Z" transform="translate(-4.28 -1.93)"/><path class="cls-1" d="M20,37.12a5.92,5.92,0,0,1,1.84-4.38,6.52,6.52,0,0,1,9,0,6.08,6.08,0,0,1,1.83,4.47A6,6,0,0,1,30.8,41.7a6.28,6.28,0,0,1-4.55,1.8,6,6,0,0,1-4.48-1.84A6.12,6.12,0,0,1,20,37.12Zm2.81.05A4,4,0,0,0,23.72,40a3.35,3.35,0,0,0,2.58,1,3.31,3.31,0,0,0,2.57-1,4.44,4.44,0,0,0,0-5.54,3.66,3.66,0,0,0-5.13,0A3.83,3.83,0,0,0,22.77,37.17Z" transform="translate(-4.28 -1.93)"/><path class="cls-1" d="M35.42,31.26h2.76v1.1a4.5,4.5,0,0,1,3.25-1.42,4.09,4.09,0,0,1,3.23,1.3,5.34,5.34,0,0,1,1,3.63v7.28H42.91V36.51a4.41,4.41,0,0,0-.49-2.43,2,2,0,0,0-1.74-.68,2.13,2.13,0,0,0-1.94.9,6.32,6.32,0,0,0-.56,3.12v5.73H35.42Z" transform="translate(-4.28 -1.93)"/><path class="cls-1" d="M59.33,37.86H50.81a3.62,3.62,0,0,0,1,2.33,2.89,2.89,0,0,0,2.16.85,2.75,2.75,0,0,0,1.69-.49,6.93,6.93,0,0,0,1.51-1.8L59.44,40a8.93,8.93,0,0,1-1.13,1.57A6,6,0,0,1,57,42.68a5.22,5.22,0,0,1-1.48.62,7.18,7.18,0,0,1-1.72.2,5.57,5.57,0,0,1-4.27-1.71A6.39,6.39,0,0,1,48,37.22a6.57,6.57,0,0,1,1.56-4.56,5.37,5.37,0,0,1,4.17-1.72,5.31,5.31,0,0,1,4.15,1.67,6.56,6.56,0,0,1,1.52,4.6Zm-2.82-2.25a2.63,2.63,0,0,0-2.77-2.2A2.88,2.88,0,0,0,52,34a2.93,2.93,0,0,0-.61.7,3.13,3.13,0,0,0-.39.91Z" transform="translate(-4.28 -1.93)"/><path class="cls-1" d="M68.53,36.26l5.16-5H70l-3.87,3.85V22.54h0V16.79a6,6,0,0,1,.58-3.1,2.24,2.24,0,0,1,2-.89,2,2,0,0,1,1.63.64,3.35,3.35,0,0,1,.51,2.07v7h2.74V15.26a5.35,5.35,0,0,0-1-3.63,4.19,4.19,0,0,0-3.22-1.31,4.74,4.74,0,0,0-3.24,1.32V1.93H63.39V22.54h0V43.15h2.74V38.58l.44-.44,3.93,5h3.57Z" transform="translate(-4.28 -1.93)"/><path class="cls-1" d="M80.46,31.26v6.83c0,2,.78,2.95,2.33,2.95s2.33-1,2.33-2.95V31.26h2.75v6.89a7.91,7.91,0,0,1-.35,2.47,4.27,4.27,0,0,1-1.19,1.67,5.77,5.77,0,0,1-7.07,0,4.2,4.2,0,0,1-1.2-1.67,6.78,6.78,0,0,1-.35-2.47V31.26Z" transform="translate(-4.28 -1.93)"/><path class="cls-1" d="M92.21,31.26H95v1.07a5.28,5.28,0,0,1,1.34-1.09,3.13,3.13,0,0,1,1.42-.3,4.45,4.45,0,0,1,2.27.7l-1.26,2.52a2.58,2.58,0,0,0-1.53-.56C95.71,33.6,95,34.73,95,37v6.16H92.21Z" transform="translate(-4.28 -1.93)"/><path class="cls-1" d="M111.2,31.26H114V43.15H111.2V41.91a5.27,5.27,0,0,1-7.73-.2,6.63,6.63,0,0,1-1.59-4.54,6.44,6.44,0,0,1,1.59-4.45,5.17,5.17,0,0,1,4-1.78,5,5,0,0,1,3.72,1.7Zm-6.52,5.91A4.17,4.17,0,0,0,105.6,40,3,3,0,0,0,108,41a3.14,3.14,0,0,0,2.46-1,4.52,4.52,0,0,0,0-5.52A3.12,3.12,0,0,0,108,33.41a3,3,0,0,0-2.37,1.08A4,4,0,0,0,104.68,37.17Z" transform="translate(-4.28 -1.93)"/></svg>