<?xml version="1.0" encoding="utf-8"?>
<!-- Generator: Adobe Illustrator 23.0.6, SVG Export Plug-In . SVG Version: 6.00 Build 0)  -->
<svg version="1.1" id="_x32_" xmlns="http://www.w3.org/2000/svg" xmlns:xlink="http://www.w3.org/1999/xlink" x="0px" y="0px"
	 viewBox="0 0 512 512" style="enable-background:new 0 0 512 512;" xml:space="preserve">
<style type="text/css">
	.st0{fill:#EDC168;}
</style>
<g>
	<path class="st0" d="M256,0C114.8,0,0,114.8,0,256s114.8,256,256,256s256-114.8,256-256S397.2,0,256,0z M256,66.8
		c104.3,0,189.2,84.9,189.2,189.2S360.3,445.2,256,445.2S66.8,360.3,66.8,256S151.7,66.8,256,66.8z"/>
	<path class="st0" d="M246.2,357.5c2.6,3.4,6.1,5.3,9.8,5.3c3.7,0,7.3-1.9,9.8-5.3l69-91c2.7-3.5,3.4-6.9,2-9.7
		c-1.3-2.7-4.5-4.2-8.9-4.2h-26.4c-7,0-12.6-5.7-12.6-12.6v-75c0-8.7-7.1-15.8-15.8-15.8h-34.3c-8.7,0-15.8,7.1-15.8,15.8v75
		c0,7-5.7,12.6-12.6,12.6H184c-4.4,0-7.6,1.5-8.9,4.2c-1.3,2.7-0.6,6.1,2,9.7L246.2,357.5z"/>
</g>
</svg>
