<?xml version="1.0" encoding="utf-8"?>
<!-- Generator: Adobe Illustrator 23.0.4, SVG Export Plug-In . SVG Version: 6.00 Build 0)  -->
<svg version="1.1" id="_x32_" xmlns="http://www.w3.org/2000/svg" xmlns:xlink="http://www.w3.org/1999/xlink" x="0px" y="0px"
	 viewBox="0 0 550 550" style="enable-background:new 0 0 550 550;" xml:space="preserve">
<style type="text/css">
	.st0{fill:#123E97;}
</style>
<g>
	<path class="st0" d="M275,19C133.8,19,19,133.8,19,275s114.8,256,256,256s256-114.8,256-256S416.2,19,275,19z M439.7,439.7
		C397.5,482,339.3,508.1,275,508.1S152.5,482,110.3,439.7C68,397.5,41.9,339.3,41.9,275S68,152.5,110.3,110.3
		C152.5,68,210.7,41.9,275,41.9S397.5,68,439.7,110.2c42.2,42.3,68.3,100.4,68.3,164.7C508.1,339.3,482,397.5,439.7,439.7z"/>
	<path class="st0" d="M91,192.9h-1.4C78.4,218,72.2,245.7,72.2,275c0,79.8,46.1,148.8,113.1,181.9L91,192.9L91,192.9z"/>
	<path class="st0" d="M390.2,201.4c-17.5-24.5-14.9-74.4,17.3-79.9C371.9,90.8,325.6,72.2,275,72.2c-71.9,0-135,37.4-171,93.9h74.2
		v26.8h-29.9l69.3,193.9l48.6-129.9l-22.9-64h-34.6v-26.8h124.2v26.8h-32.4l69.9,195.6l35.4-94.6C412.1,268.4,408.4,227,390.2,201.4
		z"/>
	<path class="st0" d="M463.5,200.3c-0.1,0.8-0.2,1.5-0.3,2.3c-4.9,32.9-35.4,105.1-35.4,105.1l-44.1,118l-9.8,26.3
		c62-34.7,103.9-100.9,103.9-177.1C477.8,248.6,472.7,223.4,463.5,200.3z"/>
	<path class="st0" d="M230.9,424l-16.7,44.5c19.2,6,39.6,9.3,60.8,9.3c23.2,0,45.4-3.9,66.1-11.1L279.5,294L230.9,424z"/>
</g>
</svg>
